<svg width="40" height="40" viewBox="0 0 40 40" fill="none" xmlns="http://www.w3.org/2000/svg">
<path d="M29.1112 6C30.6692 6 31.9258 7.27912 32 8.78437V33L29.0337 30.4429L27.4048 28.9376L25.6274 27.3649L26.3698 29.8455H10.8145C9.261 29.8455 8 28.6474 8 27.06V8.79C8 7.28475 9.26322 6.00338 10.8201 6.00338H29.1035L29.1112 6ZM22.332 12.3934H22.2987L22.0749 12.6184C24.3719 13.2934 25.4834 14.3475 25.4834 14.3475C24.003 13.596 22.6688 13.2202 21.3347 13.0684C20.3707 12.9165 19.4066 12.9964 18.5922 13.0684H18.3706C17.8498 13.0684 16.7417 13.2934 15.2568 13.8953C14.7394 14.1236 14.4424 14.2733 14.4424 14.2733C14.4424 14.2733 15.5527 13.146 17.9994 12.5441L17.8498 12.3923C17.8498 12.3923 15.997 12.3203 13.997 13.821C13.997 13.821 11.9969 17.358 11.9969 21.7185C11.9969 21.7185 13.1049 23.676 16.1444 23.7502C16.1444 23.7502 16.5877 23.1506 17.0364 22.623C15.33 22.0965 14.6651 21.0435 14.6651 21.0435C14.6651 21.0435 14.8136 21.1177 15.0363 21.2685H15.1028C15.1361 21.2685 15.1516 21.2854 15.1693 21.3023V21.309C15.187 21.327 15.2025 21.3427 15.2358 21.3427C15.6015 21.4957 15.9671 21.6465 16.2663 21.7928C16.7827 22.02 17.4464 22.2461 18.2609 22.3958C19.2914 22.5476 20.4726 22.6208 21.8178 22.3958C22.4827 22.2439 23.1475 22.0954 23.8124 21.7939C24.2445 21.5689 24.7764 21.3439 25.3604 20.9648C25.3604 20.9648 24.6955 22.0178 22.917 22.5443C23.2827 23.0685 23.798 23.6693 23.798 23.6693C26.8385 23.6018 28.0198 21.6442 28.0862 21.7275C28.0862 17.3737 26.0751 13.83 26.0751 13.83C24.2634 12.4643 22.568 12.4125 22.2688 12.4125L22.3309 12.39L22.332 12.3934ZM22.5181 17.358C23.2971 17.358 23.9254 18.033 23.9254 18.8599C23.9254 19.6924 23.2938 20.3674 22.5181 20.3674C21.7425 20.3674 21.1109 19.6924 21.1109 18.8666C21.1131 18.0341 21.7458 17.3614 22.5181 17.3614V17.358ZM17.4841 17.358C18.2598 17.358 18.8869 18.033 18.8869 18.8599C18.8869 19.6924 18.2553 20.3674 17.4797 20.3674C16.704 20.3674 16.0724 19.6924 16.0724 18.8666C16.0724 18.0341 16.704 17.3614 17.4797 17.3614L17.4841 17.358Z" fill="url(#paint0_linear)"/>
<defs>
<linearGradient id="paint0_linear" x1="2.84848" y1="6" x2="40.4681" y2="8.8005" gradientUnits="userSpaceOnUse">
<stop stop-color="#9C00D3"/>
<stop offset="1" stop-color="#BD00FF"/>
</linearGradient>
</defs>
</svg>
