<svg width="40" height="40" viewBox="0 0 40 40" fill="none" xmlns="http://www.w3.org/2000/svg">
<path d="M20.0001 13.2378C16.3307 13.2378 13.2904 16.2257 13.2904 19.9475C13.2904 23.6692 16.2783 26.6571 20.0001 26.6571C23.7219 26.6571 26.7098 23.6168 26.7098 19.9475C26.7098 16.2781 23.6694 13.2378 20.0001 13.2378ZM20.0001 24.2459C17.6412 24.2459 15.7017 22.3063 15.7017 19.9475C15.7017 17.5886 17.6412 15.6491 20.0001 15.6491C22.359 15.6491 24.2985 17.5886 24.2985 19.9475C24.2985 22.3063 22.359 24.2459 20.0001 24.2459Z" fill="url(#paint0_linear)"/>
<path d="M26.9716 14.6009C27.8111 14.6009 28.4917 13.9203 28.4917 13.0807C28.4917 12.2411 27.8111 11.5605 26.9716 11.5605C26.132 11.5605 25.4514 12.2411 25.4514 13.0807C25.4514 13.9203 26.132 14.6009 26.9716 14.6009Z" fill="url(#paint1_linear)"/>
<path d="M30.9032 9.14919C29.5403 7.73387 27.6008 7 25.3992 7H14.6008C10.0403 7 7 10.0403 7 14.6008V25.3468C7 27.6008 7.73387 29.5403 9.20161 30.9556C10.6169 32.3185 12.504 33 14.6532 33H25.3468C27.6008 33 29.4879 32.2661 30.8508 30.9556C32.2661 29.5927 33 27.6532 33 25.3992V14.6008C33 12.3992 32.2661 10.5121 30.9032 9.14919ZM30.6935 25.3992C30.6935 27.0242 30.1169 28.3347 29.1734 29.2258C28.2298 30.1169 26.9194 30.5887 25.3468 30.5887H14.6532C13.0806 30.5887 11.7702 30.1169 10.8266 29.2258C9.88306 28.2823 9.41129 26.9718 9.41129 25.3468V14.6008C9.41129 13.0282 9.88306 11.7177 10.8266 10.7742C11.7177 9.88306 13.0806 9.41129 14.6532 9.41129H25.4516C27.0242 9.41129 28.3347 9.88306 29.2782 10.8266C30.1694 11.7702 30.6935 13.0806 30.6935 14.6008V25.3992Z" fill="url(#paint2_linear)"/>
<defs>
<linearGradient id="paint0_linear" x1="10.41" y1="13.2378" x2="31.4139" y2="14.9968" gradientUnits="userSpaceOnUse">
<stop stop-color="#9C00D3"/>
<stop offset="1" stop-color="#BD00FF"/>
</linearGradient>
<linearGradient id="paint1_linear" x1="24.7988" y1="11.5605" x2="29.5575" y2="11.9591" gradientUnits="userSpaceOnUse">
<stop stop-color="#9C00D3"/>
<stop offset="1" stop-color="#BD00FF"/>
</linearGradient>
<linearGradient id="paint2_linear" x1="1.41919" y1="7" x2="42.1142" y2="10.4081" gradientUnits="userSpaceOnUse">
<stop stop-color="#9C00D3"/>
<stop offset="1" stop-color="#BD00FF"/>
</linearGradient>
</defs>
</svg>
