<svg width="45" height="45" viewBox="0 0 45 45" fill="none" xmlns="http://www.w3.org/2000/svg">
<path d="M39.8523 12.7085C41.0912 12.0095 41.5403 10.4276 40.7042 9.27661C38.2593 5.91068 34.9175 3.27388 31.0373 1.68261C26.3593 -0.235869 21.1715 -0.522801 16.3105 0.868086C11.4494 2.25897 7.19855 5.2466 4.24334 9.34917C1.28814 13.4517 -0.19912 18.4301 0.0214128 23.4814C0.241946 28.5327 2.15742 33.3625 5.45892 37.1919C8.76042 41.0213 13.2555 43.6271 18.2193 44.589C23.183 45.551 28.3261 44.813 32.8191 42.4941C36.5458 40.5708 39.6451 37.6528 41.7874 34.0866C42.5199 32.8671 41.9348 31.3304 40.6396 30.7419V30.7419C39.3445 30.1535 37.8328 30.7401 37.0592 31.934C35.4246 34.4565 33.1537 36.5243 30.4565 37.9163C26.9922 39.7043 23.0266 40.2733 19.1994 39.5316C15.3721 38.7899 11.9062 36.7807 9.36061 33.8281C6.81501 30.8754 5.3381 27.1515 5.16806 23.2567C4.99802 19.3619 6.14476 15.5234 8.42335 12.3602C10.7019 9.1969 13.9795 6.89331 17.7276 5.82088C21.4757 4.74845 25.4757 4.96969 29.0827 6.44891C31.8909 7.6006 34.3334 9.46257 36.1816 11.8331C37.0563 12.9549 38.6134 13.4076 39.8523 12.7085V12.7085Z" fill="url(#paint0_linear)"/>
<rect x="14.7966" y="11.7" width="5.1" height="21.6" rx="2.55" fill="url(#paint1_linear)"/>
<path d="M26.5858 11.7785C27.3151 11.7834 27.9691 12.2247 28.2458 12.8985L29.1172 15.021C29.4248 15.7702 28.6583 16.5135 27.9189 16.183V16.183C27.8058 16.1325 27.6834 16.106 27.5594 16.1051L16.8694 16.0342C15.6765 16.0263 14.7188 15.0529 14.7303 13.86V13.86C14.7419 12.6671 15.7183 11.7065 16.9112 11.7144L26.5858 11.7785Z" fill="url(#paint2_linear)"/>
<path d="M24.9646 19.1118C25.1078 19.1127 25.25 19.0868 25.3838 19.0354V19.0354C26.4 18.6452 27.3338 19.7554 26.7759 20.6905L25.6937 22.5044C25.3506 23.0794 24.7282 23.4296 24.0596 23.4238L17.0561 23.3639L16.8764 23.3639C15.6818 23.3639 14.7185 22.3913 14.7301 21.1968V21.1968C14.7416 20.0079 15.7147 19.0504 16.9037 19.0583L24.9646 19.1118Z" fill="url(#paint3_linear)"/>
<defs>
<linearGradient id="paint0_linear" x1="22.5" y1="0" x2="22.5" y2="45" gradientUnits="userSpaceOnUse">
<stop stop-color="#8F00FF"/>
<stop offset="1" stop-color="#B800D6"/>
</linearGradient>
<linearGradient id="paint1_linear" x1="17.3466" y1="11.7" x2="17.3466" y2="33.3" gradientUnits="userSpaceOnUse">
<stop stop-color="#8F00FF"/>
<stop offset="1" stop-color="#B800D6"/>
</linearGradient>
<linearGradient id="paint2_linear" x1="29.9964" y1="14.4507" x2="14.7261" y2="14.3031" gradientUnits="userSpaceOnUse">
<stop stop-color="#8F00FF"/>
<stop offset="1" stop-color="#B800D6"/>
</linearGradient>
<linearGradient id="paint3_linear" x1="28.4436" y1="20.6524" x2="14.7366" y2="20.5199" gradientUnits="userSpaceOnUse">
<stop stop-color="#8F00FF"/>
<stop offset="1" stop-color="#B800D6"/>
</linearGradient>
</defs>
</svg>
