<svg width="40" height="40" viewBox="0 0 40 40" fill="none" xmlns="http://www.w3.org/2000/svg">
<path d="M33 12.3675C32.0074 12.7696 30.9392 13.0409 29.8184 13.1623C30.9628 12.5378 31.8403 11.5487 32.2541 10.3687C31.1837 10.9477 29.9987 11.3678 28.7365 11.5946C27.7264 10.6135 26.2866 10 24.6933 10C21.6345 10 19.1544 12.2606 19.1544 15.0492C19.1544 15.4444 19.2032 15.8295 19.298 16.1997C14.6942 15.9889 10.6121 13.9791 7.87991 10.9242C7.40308 11.6696 7.13014 12.5368 7.13014 13.4631C7.13014 15.2146 8.10791 16.7603 9.5943 17.6655C8.68668 17.639 7.83223 17.4117 7.0852 17.0335C7.08465 17.0545 7.08465 17.076 7.08465 17.0975C7.08465 19.5434 8.99415 21.5837 11.5285 22.0483C11.0637 22.1632 10.5743 22.2251 10.0689 22.2251C9.71159 22.2251 9.36465 22.1936 9.02649 22.1342C9.73187 24.14 11.7773 25.6002 14.2009 25.6407C12.3051 26.9951 9.91712 27.8024 7.32142 27.8024C6.87473 27.8024 6.43353 27.7784 6 27.7314C8.4521 29.1647 11.3635 30 14.4914 30C24.6807 30 30.2519 22.3065 30.2519 15.6342C30.2519 15.4154 30.247 15.1971 30.2366 14.9803C31.3185 14.2699 32.2579 13.3801 33 12.3675Z" fill="url(#paint0_linear)"/>
<defs>
<linearGradient id="paint0_linear" x1="0.204545" y1="10" x2="42.2241" y2="14.7507" gradientUnits="userSpaceOnUse">
<stop stop-color="#9C00D3"/>
<stop offset="1" stop-color="#BD00FF"/>
</linearGradient>
</defs>
</svg>
